<svg width="24" height="26" viewBox="0 0 24 26" fill="none" xmlns="http://www.w3.org/2000/svg">
<path d="M9.8125 4.6875V5.125H14.1875V4.6875C14.1875 4.10734 13.957 3.55094 13.5468 3.1407C13.1366 2.73047 12.5802 2.5 12 2.5C11.4198 2.5 10.8634 2.73047 10.4532 3.1407C10.043 3.55094 9.8125 4.10734 9.8125 4.6875ZM8.0625 5.125V4.6875C8.0625 3.64321 8.47734 2.64169 9.21577 1.90327C9.95419 1.16484 10.9557 0.75 12 0.75C13.0443 0.75 14.0458 1.16484 14.7842 1.90327C15.5227 2.64169 15.9375 3.64321 15.9375 4.6875V5.125H22.5C22.7321 5.125 22.9546 5.21719 23.1187 5.38128C23.2828 5.54538 23.375 5.76794 23.375 6C23.375 6.23206 23.2828 6.45462 23.1187 6.61872C22.9546 6.78281 22.7321 6.875 22.5 6.875H21.1805L19.525 21.372C19.4029 22.4397 18.8922 23.4251 18.0901 24.1403C17.2881 24.8555 16.2509 25.2505 15.1762 25.25H8.82375C7.74913 25.2505 6.71191 24.8555 5.90987 24.1403C5.10783 23.4251 4.59708 22.4397 4.475 21.372L2.8195 6.875H1.5C1.26794 6.875 1.04538 6.78281 0.881282 6.61872C0.717187 6.45462 0.625 6.23206 0.625 6C0.625 5.76794 0.717187 5.54538 0.881282 5.38128C1.04538 5.21719 1.26794 5.125 1.5 5.125H8.0625ZM6.2145 21.1725C6.28755 21.8129 6.59368 22.4041 7.07456 22.8333C7.55543 23.2626 8.17742 23.4999 8.822 23.5H15.1771C15.8217 23.4999 16.4437 23.2626 16.9246 22.8333C17.4054 22.4041 17.7116 21.8129 17.7846 21.1725L19.42 6.875H4.58087L6.2145 21.1725ZM9.375 9.9375C9.60706 9.9375 9.82962 10.0297 9.99372 10.1938C10.1578 10.3579 10.25 10.5804 10.25 10.8125V19.5625C10.25 19.7946 10.1578 20.0171 9.99372 20.1812C9.82962 20.3453 9.60706 20.4375 9.375 20.4375C9.14294 20.4375 8.92038 20.3453 8.75628 20.1812C8.59219 20.0171 8.5 19.7946 8.5 19.5625V10.8125C8.5 10.5804 8.59219 10.3579 8.75628 10.1938C8.92038 10.0297 9.14294 9.9375 9.375 9.9375ZM15.5 10.8125C15.5 10.5804 15.4078 10.3579 15.2437 10.1938C15.0796 10.0297 14.8571 9.9375 14.625 9.9375C14.3929 9.9375 14.1704 10.0297 14.0063 10.1938C13.8422 10.3579 13.75 10.5804 13.75 10.8125V19.5625C13.75 19.7946 13.8422 20.0171 14.0063 20.1812C14.1704 20.3453 14.3929 20.4375 14.625 20.4375C14.8571 20.4375 15.0796 20.3453 15.2437 20.1812C15.4078 20.0171 15.5 19.7946 15.5 19.5625V10.8125Z" fill="#929292"/>
</svg>
