<svg width="92" height="29" viewBox="0 0 92 29" fill="none" xmlns="http://www.w3.org/2000/svg">
<path d="M11.37 12.28C14.1933 12.63 16.41 13.505 18.02 14.905C19.63 16.2817 20.435 18.16 20.435 20.54C20.435 22.1033 20.0267 23.48 19.21 24.67C18.4167 25.86 17.2383 26.7817 15.675 27.435C14.135 28.1117 12.28 28.45 10.11 28.45C8.40667 28.45 6.75 28.1583 5.14 27.575C3.53 27.015 2.22333 26.2333 1.22 25.23C0.753334 24.6467 0.52 24.0983 0.52 23.585C0.52 23.095 0.741667 22.64 1.185 22.22C1.58167 21.8 2.095 21.59 2.725 21.59C3.47167 21.59 4.10167 21.8467 4.615 22.36C6.085 23.76 7.99833 24.46 10.355 24.46C12.2217 24.46 13.575 24.145 14.415 23.515C15.2783 22.8617 15.71 21.8467 15.71 20.47C15.71 19.1167 15.29 18.1367 14.45 17.53C13.6333 16.9233 12.3383 16.515 10.565 16.305L9.34 16.165C6.86667 15.885 4.88333 15.0683 3.39 13.715C1.89667 12.3383 1.15 10.5417 1.15 8.325C1.15 6.90167 1.54667 5.595 2.34 4.405C3.15667 3.215 4.265 2.27 5.665 1.57C7.065 0.869999 8.61667 0.519998 10.32 0.519998C11.79 0.519998 13.1667 0.706665 14.45 1.08C15.7567 1.43 16.8417 2.00167 17.705 2.795C18.3117 3.37833 18.615 3.93833 18.615 4.475C18.615 4.80167 18.51 5.14 18.3 5.49C18.09 5.81667 17.8217 6.07333 17.495 6.26C17.1683 6.42333 16.8183 6.505 16.445 6.505C15.8383 6.505 15.3133 6.31833 14.87 5.945C14.2633 5.455 13.61 5.09333 12.91 4.86C12.2333 4.62667 11.3933 4.51 10.39 4.51C9.10667 4.51 8.045 4.83667 7.205 5.49C6.365 6.14333 5.945 7.065 5.945 8.255C5.945 9.49167 6.31833 10.4133 7.065 11.02C7.81167 11.6033 8.86167 11.9767 10.215 12.14L11.37 12.28Z" fill="#3485FF"/>
<path d="M24.2618 2.865C24.2618 2.235 24.4484 1.745 24.8218 1.395C25.2184 1.02167 25.7084 0.834999 26.2918 0.834999H42.4618C43.0451 0.834999 43.5234 1.02167 43.8968 1.395C44.2934 1.745 44.4918 2.235 44.4918 2.865C44.4918 3.51833 44.2934 4.03167 43.8968 4.405C43.5234 4.755 43.0451 4.93 42.4618 4.93H36.7218V26.175C36.7218 26.945 36.5118 27.505 36.0918 27.855C35.6718 28.205 35.1118 28.38 34.4118 28.38C33.7351 28.38 33.1751 28.1933 32.7318 27.82C32.2884 27.47 32.0668 26.9217 32.0668 26.175V4.93H26.2918C25.7084 4.93 25.2184 4.755 24.8218 4.405C24.4484 4.03167 24.2618 3.51833 24.2618 2.865Z" fill="#0066FF"/>
<path d="M51.8568 0.659999C52.5335 0.659999 53.0818 0.846666 53.5018 1.22C53.9451 1.59333 54.1668 2.14167 54.1668 2.865V26.175C54.1668 26.8983 53.9451 27.4467 53.5018 27.82C53.0818 28.1933 52.5335 28.38 51.8568 28.38C51.1568 28.38 50.5851 28.1933 50.1418 27.82C49.7218 27.47 49.5118 26.9217 49.5118 26.175V2.865C49.5118 2.11833 49.7218 1.57 50.1418 1.22C50.5851 0.846666 51.1568 0.659999 51.8568 0.659999Z" fill="#0050C8"/>
<path d="M66.6842 24.18C69.9976 24.18 72.5059 23.4333 74.2092 21.94C75.9359 20.4233 76.7992 17.9033 76.7992 14.38C76.7992 10.9033 75.9359 8.45333 74.2092 7.03C72.5059 5.58333 69.9976 4.86 66.6842 4.86H64.8992V24.18H66.6842ZM60.2442 3.6C60.2442 2.73667 60.5242 2.04833 61.0842 1.535C61.6442 1.02167 62.3792 0.764999 63.2892 0.764999H66.6842C71.3509 0.764999 74.9909 1.92 77.6042 4.23C80.2409 6.54 81.5592 9.94667 81.5592 14.45C81.5592 19.0233 80.2526 22.4767 77.6392 24.81C75.0259 27.12 71.3742 28.275 66.6842 28.275H63.8842C62.5776 28.275 61.6442 28.0183 61.0842 27.505C60.5242 27.015 60.2442 26.1517 60.2442 24.915V3.6Z" fill="#003C95"/>
<path d="M89.2152 0.659999C89.8919 0.659999 90.4402 0.846666 90.8602 1.22C91.3035 1.59333 91.5252 2.14167 91.5252 2.865V26.175C91.5252 26.8983 91.3035 27.4467 90.8602 27.82C90.4402 28.1933 89.8919 28.38 89.2152 28.38C88.5152 28.38 87.9435 28.1933 87.5002 27.82C87.0802 27.47 86.8702 26.9217 86.8702 26.175V2.865C86.8702 2.11833 87.0802 1.57 87.5002 1.22C87.9435 0.846666 88.5152 0.659999 89.2152 0.659999Z" fill="#002459"/>
</svg>
