<svg width="17" height="18" viewBox="0 0 17 18" fill="none" xmlns="http://www.w3.org/2000/svg">
<path fill-rule="evenodd" clip-rule="evenodd" d="M12.773 2.14867C13.1635 1.75814 13.7967 1.75814 14.1872 2.14867L15.6014 3.5629C15.9919 3.9534 15.9919 4.5866 15.6014 4.9771L14.1872 6.3913L11.3588 3.563L10.6517 4.2701L13.48 7.0984L5.2089 15.3696L1.67331 16.0767L2.3805 12.5412L12.773 2.14867ZM1.46085 17.139L5.7019 16.2908L16.3085 5.6842C17.0895 4.9032 17.0895 3.6368 16.3085 2.85577L14.8943 1.44156C14.1132 0.660511 12.8469 0.660511 12.0659 1.44156L1.45922 12.0482L0.61102 16.2892L0.39856 17.3515L1.46085 17.139Z" fill="#555555"/>
</svg>
