<svg width="26" height="22" viewBox="0 0 26 22" fill="none" xmlns="http://www.w3.org/2000/svg">
<path d="M21.4222 9.84513H1.09375C0.803669 9.84513 0.52547 9.96037 0.320352 10.1655C0.115234 10.3706 0 10.6488 0 10.9389C0 11.229 0.115234 11.5072 0.320352 11.7123C0.52547 11.9174 0.803669 12.0326 1.09375 12.0326H21.4222L13.4444 20.0083C13.239 20.2136 13.1236 20.4922 13.1236 20.7826C13.1236 21.0731 13.239 21.3516 13.4444 21.557C13.6498 21.7624 13.9283 21.8778 14.2187 21.8778C14.5092 21.8778 14.7877 21.7624 14.9931 21.557L24.8369 11.7133C24.9387 11.6117 25.0195 11.491 25.0747 11.3581C25.1298 11.2252 25.1582 11.0827 25.1582 10.9389C25.1582 10.795 25.1298 10.6526 25.0747 10.5197C25.0195 10.3868 24.9387 10.2661 24.8369 10.1645L14.9931 0.320756C14.7877 0.115379 14.5092 0 14.2187 0C13.9283 0 13.6498 0.115379 13.4444 0.320756C13.239 0.526133 13.1236 0.804685 13.1236 1.09513C13.1236 1.38558 13.239 1.66413 13.4444 1.86951L21.4222 9.84513Z" fill="white"/>
</svg>
